<svg xmlns="http://www.w3.org/2000/svg" data-name="Layer 21" viewBox="0 0 100 125" x="0px" y="0px"><title>7. amazon</title><path d="M56.73,33.63l-.38,0a61.48,61.48,0,0,0-13,1.41,40.26,40.26,0,0,0-5.66,1.49A18.48,18.48,0,0,0,29.29,43c-4,5.32-5,11.13-2.57,17.38a14.23,14.23,0,0,0,7.12,8,18.13,18.13,0,0,0,11.68,1.47A21.28,21.28,0,0,0,54.76,66c1.35-1.07,2.61-2.27,4-3.44a3.08,3.08,0,0,1,.22.28,44.36,44.36,0,0,0,5.33,6.28,2.09,2.09,0,0,0,2.81.14q4-3.35,8-6.71A1.18,1.18,0,0,0,75.4,62,2.13,2.13,0,0,0,75.1,60c-.62-.9-1.2-1.83-1.87-2.7a11.07,11.07,0,0,1-2-4.85A14.59,14.59,0,0,1,71,49.93q0-11.13,0-22.27A17.34,17.34,0,0,0,70.23,22a14,14,0,0,0-5.14-7.27,26.47,26.47,0,0,0-27.81-1.45A18.57,18.57,0,0,0,27.57,26.2a1.91,1.91,0,0,0,1.81,2.4l5.05.45c1.26.11,2.52.23,3.78.33A2.1,2.1,0,0,0,40.46,28a8.5,8.5,0,0,1,7.45-6.74,8.18,8.18,0,0,1,5,.58,6.33,6.33,0,0,1,3.85,6c0,1.75,0,3.5,0,5.25C56.75,33.26,56.74,33.44,56.73,33.63ZM54.8,55a15,15,0,0,1-3.19,3.65,6,6,0,0,1-5.45,1.24A9.24,9.24,0,0,1,43.9,59a6,6,0,0,1-3-4.3,10.87,10.87,0,0,1,.2-6.19,9.72,9.72,0,0,1,4.36-5.09,10,10,0,0,1,4.71-1.56c2.07-.13,4.15-.23,6.22-.34l.36,0v.59c0,2,0,4.06,0,6.09A12.23,12.23,0,0,1,54.8,55Z"/><path d="M19,76c-1-.54-2-1.1-3-1.67-.66-.39-1.31-.78-2-1.2-1-.65-2-1.33-3-2a.66.66,0,0,0-1,.08.72.72,0,0,0,0,1c.78.88,1.58,1.75,2.41,2.6.48.5,1,.94,1.51,1.42a40.91,40.91,0,0,0,5.28,4.38c1,.72,2.05,1.41,3.11,2.06,1.35.82,2.71,1.65,4.13,2.36s2.79,1.28,4.2,1.88a27.6,27.6,0,0,0,2.62,1,27.66,27.66,0,0,0,5.31,1.39c1.63.16,3.25.49,4.89.65,1,.1,2.09,0,3.14,0V90c1.74-.1,3.49-.14,5.22-.32,1.44-.15,2.86-.42,4.28-.71s2.9-.65,4.34-1.06c1.07-.31,2.11-.73,3.15-1.13a28.18,28.18,0,0,0,2.67-1.09c1.17-.58,2.31-1.23,3.44-1.89s2-1.19,2.9-1.84a22.08,22.08,0,0,0,2.09-1.63c1-.85,1.92-1.73,2.86-2.62a1,1,0,0,0,.1-1.2,1.26,1.26,0,0,0-1.19-.33c-.45.16-.87.4-1.31.59-2,.86-4,1.7-6,2.58a47,47,0,0,1-6.13,2.08c-1,.29-2,.58-3,.84-.65.16-1.3.29-2,.43-1,.22-2,.49-3,.64s-2.07.16-3.11.22c-.73,0-1.45.11-2.18.12-1.69,0-3.39,0-5.08-.05-1.16,0-2.32-.17-3.49-.27-.68-.06-1.36-.1-2-.21-1.54-.27-3.07-.59-4.6-.88a28.67,28.67,0,0,1-5.06-1.45c-1.36-.54-2.71-1.09-4.05-1.66-1.06-.45-2.12-.9-3.15-1.4C21.36,77.19,20.19,76.58,19,76Z"/><path d="M89.62,72.8A22.73,22.73,0,0,0,90,69.43a2.55,2.55,0,0,0-2.19-2.53,17.93,17.93,0,0,0-3.1-.26,24.32,24.32,0,0,0-5.22.61,20.31,20.31,0,0,0-6.13,2.57c-.18.12-.24.42-.36.64a2.35,2.35,0,0,0,.7.16c.73-.1,1.44-.31,2.17-.37,1.56-.14,3.13-.21,4.81-.31l3.35.28a2.4,2.4,0,0,1,2,2.94c-.3.85-.43,1.76-.7,2.63-.5,1.6-1,3.19-1.56,4.78-.26.75-.62,1.46-.9,2.2a1.51,1.51,0,0,0,0,.59,1.75,1.75,0,0,0,.57-.06,2,2,0,0,0,.64-.47,41.2,41.2,0,0,0,2.81-3.4,23.18,23.18,0,0,0,2-3.79A12.46,12.46,0,0,0,89.62,72.8Z"/></svg>