<svg xmlns="http://www.w3.org/2000/svg" viewBox="0 0 32 40" fill="none" x="0px" y="0px"><path fill-rule="evenodd" clip-rule="evenodd" d="M10 6H22C24.1447 6 26.0265 7.12524 27.0874 8.81755L15.9883 17.2529L4.77093 9.05559C5.80022 7.23157 7.75628 6 10 6ZM4.07854 11.0267C4.02687 11.3435 4 11.6686 4 12V20C4 23.3137 6.68629 26 10 26H22C25.3137 26 28 23.3137 28 20V12C28 11.5668 27.9541 11.1443 27.8669 10.7372L16.6051 19.2962C16.253 19.5637 15.767 19.5683 15.41 19.3074L4.07854 11.0267ZM2 12C2 7.58172 5.58172 4 10 4H22C26.4183 4 30 7.58172 30 12V20C30 24.4183 26.4183 28 22 28H10C5.58172 28 2 24.4183 2 20V12Z" fill="black"/><text x="0" y="47" fill="#000000" font-size="5px" font-weight="bold" font-family="'Helvetica Neue', Helvetica, Arial-Unicode, Arial, Sans-serif">Created by Hendi Perkasa</text><text x="0" y="52" fill="#000000" font-size="5px" font-weight="bold" font-family="'Helvetica Neue', Helvetica, Arial-Unicode, Arial, Sans-serif">from the Noun Project</text></svg>